/* XPM */
static char * diamond_xpm[] = {
"32 32 399 2",
"  	c #B4875D",
". 	c #B28659",
"+ 	c #926C47",
"@ 	c #936D48",
"# 	c #946E47",
"$ 	c #785535",
"% 	c #775635",
"& 	c #B5845B",
"* 	c #B2855B",
"= 	c #936B47",
"- 	c #936D49",
"; 	c #745632",
"> 	c #573F25",
", 	c #543F24",
"' 	c #775633",
") 	c #775731",
"! 	c #B0855B",
"~ 	c #7B5737",
"{ 	c #B2875D",
"] 	c #B3865C",
"^ 	c #B3865D",
"/ 	c #B18659",
"( 	c #936D46",
"_ 	c #906E49",
": 	c #B48760",
"< 	c #B1865C",
"[ 	c #916D49",
"} 	c #906E48",
"| 	c #775637",
"1 	c #755435",
"2 	c #573D22",
"3 	c #573F23",
"4 	c #785736",
"5 	c #745634",
"6 	c #785631",
"7 	c #AF845A",
"8 	c #7A573B",
"9 	c #B1855E",
"0 	c #8F6C46",
"a 	c #594129",
"b 	c #554023",
"c 	c #563E26",
"d 	c #553F27",
"e 	c #563D27",
"f 	c #573F27",
"g 	c #745739",
"h 	c #544028",
"i 	c #755733",
"j 	c #B5855D",
"k 	c #B2875C",
"l 	c #956A47",
"m 	c #916B46",
"n 	c #5C3D28",
"o 	c #7A5938",
"p 	c #7B5A39",
"q 	c #8D6C41",
"r 	c #5C4229",
"s 	c #584024",
"t 	c #765534",
"u 	c #735634",
"v 	c #7C5838",
"w 	c #7B5A3B",
"x 	c #594127",
"y 	c #584028",
"z 	c #775A3A",
"A 	c #906A43",
"B 	c #926B44",
"C 	c #745735",
"D 	c #AF8056",
"E 	c #AE8157",
"F 	c #916E48",
"G 	c #8B6F3D",
"H 	c #614128",
"I 	c #5C402A",
"J 	c #B3885D",
"K 	c #B2855C",
"L 	c #573D24",
"M 	c #573D26",
"N 	c #B3885B",
"O 	c #946E49",
"P 	c #96795C",
"Q 	c #969C8D",
"R 	c #7A9183",
"S 	c #709486",
"T 	c #8D9983",
"U 	c #90937A",
"V 	c #517A6F",
"W 	c #5C5E50",
"X 	c #543F22",
"Y 	c #84877C",
"Z 	c #828781",
"` 	c #B28657",
" .	c #B28856",
"..	c #78543A",
"+.	c #745630",
"@.	c #755637",
"#.	c #573C27",
"$.	c #B5865A",
"%.	c #926F49",
"&.	c #93917E",
"*.	c #97B2A5",
"=.	c #F9F8F7",
"-.	c #F1F0EF",
";.	c #FFFFFF",
">.	c #FCFCFC",
",.	c #8AA7A0",
"'.	c #77624A",
").	c #583C27",
"!.	c #888481",
"~.	c #7F8A7A",
"{.	c #B98361",
"].	c #966A47",
"^.	c #956B43",
"/.	c #6B6C67",
"(.	c #6D6C67",
"_.	c #B1845A",
":.	c #785537",
"<.	c #755735",
"[.	c #563C23",
"}.	c #573C21",
"|.	c #8B775D",
"1.	c #535F4E",
"2.	c #698981",
"3.	c #FFFEFF",
"4.	c #5E7B76",
"5.	c #133B32",
"6.	c #765639",
"7.	c #B58557",
"8.	c #B78455",
"9.	c #966B48",
"0.	c #946C48",
"a.	c #795839",
"b.	c #976948",
"c.	c #6A6D66",
"d.	c #B48559",
"e.	c #795636",
"f.	c #785734",
"g.	c #583E27",
"h.	c #8C826A",
"i.	c #DEFDF7",
"j.	c #A2F6E7",
"k.	c #A2F6E9",
"l.	c #AFF7EB",
"m.	c #D1FAF2",
"n.	c #67E7D0",
"o.	c #30DABF",
"p.	c #405A4B",
"q.	c #563C25",
"r.	c #946C49",
"s.	c #775434",
"t.	c #745830",
"u.	c #8F6D48",
"v.	c #543E26",
"w.	c #6C6B62",
"x.	c #8B9C89",
"y.	c #DFFCF7",
"z.	c #A1F5E6",
"A.	c #A3F5E7",
"B.	c #D1FAF4",
"C.	c #30DABD",
"D.	c #1F433A",
"E.	c #593D27",
"F.	c #765536",
"G.	c #916E46",
"H.	c #765836",
"I.	c #946947",
"J.	c #6C867C",
"K.	c #CCD2D2",
"L.	c #D2FBF5",
"M.	c #C1F9EE",
"N.	c #CBFAF2",
"O.	c #4AEDD2",
"P.	c #1C4138",
"Q.	c #B2865F",
"R.	c #906D47",
"S.	c #593F24",
"T.	c #564126",
"U.	c #926F45",
"V.	c #6B7F6E",
"W.	c #C9D2D1",
"X.	c #FEFEFE",
"Y.	c #CCF9F2",
"Z.	c #4BEED3",
"`.	c #0C3730",
" +	c #4E422E",
".+	c #785633",
"++	c #B1865B",
"@+	c #B98556",
"#+	c #564028",
"$+	c #906D45",
"%+	c #6C7E6F",
"&+	c #CAD3D2",
"*+	c #FEFFFF",
"=+	c #DEFBF6",
"-+	c #D0FAF0",
";+	c #D0FBF2",
">+	c #78F2DD",
",+	c #28B69E",
"'+	c #3A6656",
")+	c #775339",
"!+	c #785738",
"~+	c #775C45",
"{+	c #60867C",
"]+	c #79F3DE",
"^+	c #31DBBE",
"/+	c #0C372E",
"(+	c #916B47",
"_+	c #946E4A",
":+	c #735C43",
"<+	c #465544",
"[+	c #768E89",
"}+	c #B6F8EC",
"|+	c #A2F6E6",
"1+	c #D7FCF5",
"2+	c #8BF4E3",
"3+	c #8BF4E5",
"4+	c #45B6A4",
"5+	c #209582",
"6+	c #3BC5AE",
"7+	c #0C3632",
"8+	c #926C48",
"9+	c #8F6B47",
"0+	c #76573A",
"a+	c #785336",
"b+	c #775532",
"c+	c #785832",
"d+	c #AF865A",
"e+	c #907250",
"f+	c #374437",
"g+	c #6F8884",
"h+	c #8AF5E3",
"i+	c #45B6A2",
"j+	c #4CECD2",
"k+	c #86867C",
"l+	c #898385",
"m+	c #926F47",
"n+	c #765532",
"o+	c #775933",
"p+	c #B1845B",
"q+	c #8F6C4A",
"r+	c #374236",
"s+	c #B9F8ED",
"t+	c #8AF3E2",
"u+	c #8CF5E4",
"v+	c #49ECD1",
"w+	c #44E8CD",
"x+	c #1A7A6C",
"y+	c #6C6E67",
"z+	c #83867D",
"A+	c #63492E",
"B+	c #708986",
"C+	c #D2FBF3",
"D+	c #B7F9ED",
"E+	c #219483",
"F+	c #1D7B6B",
"G+	c #332518",
"H+	c #8E6B45",
"I+	c #593E29",
"J+	c #755731",
"K+	c #48361F",
"L+	c #0A382E",
"M+	c #DBFBF6",
"N+	c #2DCDB1",
"O+	c #4CDAC2",
"P+	c #8DF4E3",
"Q+	c #8BF5E1",
"R+	c #1A7B68",
"S+	c #1A7B6A",
"T+	c #115349",
"U+	c #000201",
"V+	c #916945",
"W+	c #5D3F27",
"X+	c #22180C",
"Y+	c #4CDAC0",
"Z+	c #115347",
"`+	c #0A3730",
" @	c #7A5636",
".@	c #8B6D49",
"+@	c #1E1509",
"@@	c #72F2DB",
"#@	c #4AECD4",
"$@	c #3CCFB3",
"%@	c #27BAA0",
"&@	c #28C1A5",
"*@	c #145E51",
"=@	c #423120",
"-@	c #73583B",
";@	c #725835",
">@	c #342614",
",@	c #4CECD4",
"'@	c #3CCFB5",
")@	c #26BAA0",
"!@	c #219582",
"~@	c #7E5B3D",
"{@	c #956F4B",
"]@	c #7F8480",
"^@	c #83857A",
"/@	c #735A32",
"(@	c #7A5737",
"_@	c #957050",
":@	c #363024",
"<@	c #219683",
"[@	c #2ECEB2",
"}@	c #1C7A6A",
"|@	c #25AD95",
"1@	c #0D3630",
"2@	c #22241C",
"3@	c #8C6946",
"4@	c #868487",
"5@	c #858681",
"6@	c #725739",
"7@	c #946D46",
"8@	c #946F45",
"9@	c #2BCEB1",
"0@	c #26AC94",
"a@	c #74563A",
"b@	c #795535",
"c@	c #28B6A0",
"d@	c #2CCCB0",
"e@	c #209783",
"f@	c #209680",
"g@	c #1B806E",
"h@	c #0B362F",
"i@	c #563C21",
"j@	c #563B28",
"k@	c #906C48",
"l@	c #209583",
"m@	c #795437",
"n@	c #795835",
"o@	c #B4845C",
"p@	c #77563A",
"q@	c #082B27",
"r@	c #1F9682",
"s@	c #24A891",
"t@	c #082B25",
"u@	c #8A6B46",
"v@	c #775539",
"w@	c #936E44",
"x@	c #715641",
"y@	c #725841",
"z@	c #2CCDAE",
"A@	c #2ECDB1",
"B@	c #23A991",
"C@	c #433E2E",
"D@	c #583E25",
"E@	c #B4855B",
"F@	c #B48456",
"G@	c #976B46",
"H@	c #946A44",
"I@	c #735741",
"J@	c #70583E",
"K@	c #0E1715",
"L@	c #155D51",
"M@	c #176557",
"N@	c #1A7262",
"O@	c #1A7361",
"P@	c #1A7264",
"Q@	c #166456",
"R@	c #051515",
"S@	c #4D3A26",
"T@	c #583D28",
"U@	c #775436",
"V@	c #B28359",
"W@	c #B38458",
"X@	c #785539",
"Y@	c #352619",
"Z@	c #000000",
"`@	c #8D6945",
" #	c #795A3D",
".#	c #936C4B",
"+#	c #755836",
"@#	c #2D1F11",
"##	c #1F160B",
"$#	c #916E44",
"%#	c #A87E54",
"&#	c #AD8056",
"*#	c #976B48",
"=#	c #986D4A",
"-#	c #906A45",
";#	c #8D6C43",
">#	c #705233",
",#	c #010000",
"'#	c #010100",
")#	c #775937",
"!#	c #848276",
"~#	c #838077",
"{#	c #916643",
"]#	c #795837",
"^#	c #5F4129",
"/#	c #5D432A",
"(#	c #956D49",
"_#	c #76573B",
":#	c #868485",
"<#	c #868885",
"[#	c #70592F",
"}#	c #745538",
"|#	c #878681",
"1#	c #858881",
"2#	c #8E6D4E",
"  . + @ @ # $ % % % & * = @ @ - % % % ; > , ' % ' ) & ! ~ % { ] ",
"^ / + ( _ _ % % % ' : < _ [ [ } % ' | 1 2 3 4 5 ' 6 ] 7 8 | 9 { ",
"% ' @ 0 a b % % $ | c d c e c f % g e h + # $ i j k l m n c f f ",
"o p m q r s t u v w x x x x > y o z f c A B % C D E F G H I s y ",
"J K % % ' 6 L M N ] O @ P Q R S T U V W t % 4 | M X Y Z ` { % % ",
"]  ...+.@.' #.c $.] %.&.*.=.-.-.;.;.>.,.'.% ' % M ).!.~.{.] | % ",
"].^./.(.* _.:.<.[.}.|.1.2.;.3.;.;.;.;.4.5.6.M M 1 % 7.8.9.0.a.% ",
"@ b.c.c.d.. e.f.c g.h.;.i.j.j.k.j.l.m.n.o.p.q.d $ <.$.* r.[ | t ",
"O 9.s.t.u.= ] . v.w.x.;.y.z.j.j.A.l.B.n.C.D.K & :.' ( + n E.F.% ",
"l G.% H.} I.K $.J.K.;.L.M.j.j.j.;.N.O.O.O.P.Q.^ s.<.@ R.S.c :.' ",
"] $.e T.+ @ m U.V.W.;.m.M.z.k.j.X.Y.O.O.Z.`. +f | 5 <.% $ .+++$.",
"] @+#+#+m @ ( $+%+&+*+j.M.;.=+m.m.-+;+>+O.C.,+'+| % $ $ % <.9 _.",
"^ < )+t !+4 !+~+{+&+;.j.M.;.=+m.m.m.m.]+O.^+,+/+F.% $+(+4 % _+= ",
"] < % % % :+<+[+;.}+|+;.1+2+2+2+2+3+2+4+5+O.6+7+$ ' 8+9+0+% @ @ ",
"a+b+| c+d+e+f+g+;.}+j.;.1+2+2+h+2+2+2+i+5+j+6+`.| @.k+l+m++ 0.@ ",
"% n+% o+p+q+r+g+3.}+j.B.s+2+2+2+2+t+u+i+5+v+w+C.x+`.y+z+F @ %.%.",
"@ O t % % A+7+B+;.}+j.C+D+h+2+2+2+2+u+i+E+Z.w+C.F+`.G+H+I+f F.% ",
"0 @ % J+| K+L+g+;.M+m.N+O+P+P+2+Q+2+2+i+5+R+x+S+T+`.U+V+W+L @.% ",
"% ' 0.0 a X+`.g+X.M+m.N+Y+2+2+2+2+2+2+i+5+S+S+S+Z+`+U+!  @% F @ ",
"% ' @ .@T.+@7+g+;.@@#@O.$@5+5+5+5+5+5+%@N+N+&@5+*@`.=@^ -@;@[ ( ",
"% ' ( + t >@`.g+;.@@O.,@'@5+5+5+5+5+5+)@N+N+&@!@*@`+~@{@]@^@/@(@",
"; % %.$+f.@._@:@`.6+O.S+<@N+N+N+[@N+N+<@}@N+|@1@2@3@@ [ 4@5@6@<.",
"[ O % ' % % 7@8@`.6+O.S+<@N+N+9@N+N+N+<@S+N+0@`.@ @ @ 8+-@a@M M ",
"F G.b@' % % _ G.`.c@C.}@<@N+d@N+N+N+N+e@S+f@g@h@R.$+$+0 4 4 c f ",
"i@2 j@f t % k@G.`.,+C.S+<@N+N+9@N+N+N+e@S+l@g@`.m@.+s.n@! ^ o@o@",
"c c v.y t % %.G.p@q@h@r@s@N+N+N+N+N+N+s@5+`.t@u@v@% % 4 K ] k ] ",
"b@) w@( e.5 % % x@y@`.5+s@z@N+A@N+9@N+B@5+1@C@D@| ' E@F@G@H@H@H@",
"$ ' @ + f.' t % I@J@K@L@M@N@O@P@P@N@N@Q@L@R@S@T@U@n@& * } O @ @ ",
"R.0 4 c+% v@V@W@e.X@Y@`.`.`.`.`.`.`.`.`.`.Z@`@`@| ' o  #.#@ @ @ ",
"@ @ ' % % <.^ k U@+#@#`./+`.`.`.`.`.`.`./+##[ $#| <.% 4 + + - 7@",
"@ O % c+%#&#*#=#-#;#>#,#,#Z@Z@Z@'#Z@Z@Z@Z@% (@)#!#~#{#`@p ]#^#/#",
"@ (#% 4 p+  + @ @ @ | _#:#<#[#<.+ @ @ + f.' ' }#|#1#2#@ a.% M c "};
