/* XPM */
static char * empty_space_xpm[] = {
"32 32 325 2",
"  	c #B4875D",
". 	c #B28659",
"+ 	c #926C47",
"@ 	c #936D48",
"# 	c #946E47",
"$ 	c #785535",
"% 	c #775635",
"& 	c #B5845B",
"* 	c #B2855B",
"= 	c #936B47",
"- 	c #936D49",
"; 	c #745632",
"> 	c #573F25",
", 	c #543F24",
"' 	c #775633",
") 	c #775731",
"! 	c #B0855B",
"~ 	c #7B5737",
"{ 	c #B2875D",
"] 	c #B3865C",
"^ 	c #B3865D",
"/ 	c #B18659",
"( 	c #936D46",
"_ 	c #906E49",
": 	c #B48760",
"< 	c #B1865C",
"[ 	c #916D49",
"} 	c #906E48",
"| 	c #775637",
"1 	c #755435",
"2 	c #573D22",
"3 	c #573F23",
"4 	c #785736",
"5 	c #745634",
"6 	c #785631",
"7 	c #AF845A",
"8 	c #7A573B",
"9 	c #B1855E",
"0 	c #8F6C46",
"a 	c #594129",
"b 	c #554023",
"c 	c #563E26",
"d 	c #553F27",
"e 	c #563D27",
"f 	c #573F27",
"g 	c #745739",
"h 	c #544028",
"i 	c #755733",
"j 	c #B5855D",
"k 	c #B2875C",
"l 	c #956A47",
"m 	c #916B46",
"n 	c #5C3D28",
"o 	c #7A5938",
"p 	c #7B5A39",
"q 	c #8D6C41",
"r 	c #5C4229",
"s 	c #584024",
"t 	c #765534",
"u 	c #735634",
"v 	c #7C5838",
"w 	c #7B5A3B",
"x 	c #594127",
"y 	c #584028",
"z 	c #775A3A",
"A 	c #906A43",
"B 	c #926B44",
"C 	c #745735",
"D 	c #AF8056",
"E 	c #AE8157",
"F 	c #916E48",
"G 	c #8B6F3D",
"H 	c #614128",
"I 	c #5C402A",
"J 	c #B3885D",
"K 	c #B2855C",
"L 	c #573D24",
"M 	c #573D26",
"N 	c #B3885B",
"O 	c #946E49",
"P 	c #B98555",
"Q 	c #543F22",
"R 	c #84877C",
"S 	c #828781",
"T 	c #B28657",
"U 	c #B28856",
"V 	c #78543A",
"W 	c #745630",
"X 	c #755637",
"Y 	c #573C27",
"Z 	c #B5865A",
"` 	c #926F49",
" .	c #946E4A",
"..	c #755639",
"+.	c #B5865C",
"@.	c #553D25",
"#.	c #583C27",
"$.	c #888481",
"%.	c #7F8A7A",
"&.	c #B98361",
"*.	c #966A47",
"=.	c #956B43",
"-.	c #6B6C67",
";.	c #6D6C67",
">.	c #B1845A",
",.	c #785537",
"'.	c #755735",
").	c #563C23",
"!.	c #573C21",
"~.	c #795638",
"{.	c #B4825D",
"].	c #946A44",
"^.	c #906C48",
"/.	c #785734",
"(.	c #B58557",
"_.	c #B78455",
":.	c #966B48",
"<.	c #946C48",
"[.	c #795839",
"}.	c #976948",
"|.	c #6A6D66",
"1.	c #B48559",
"2.	c #795636",
"3.	c #583E27",
"4.	c #785738",
"5.	c #926C45",
"6.	c #916E46",
"7.	c #8D6A44",
"8.	c #563C25",
"9.	c #946C49",
"0.	c #775434",
"a.	c #745830",
"b.	c #8F6D48",
"c.	c #543E26",
"d.	c #77553A",
"e.	c #583D28",
"f.	c #583F29",
"g.	c #593D27",
"h.	c #765536",
"i.	c #765836",
"j.	c #946947",
"k.	c #583E23",
"l.	c #8F6D47",
"m.	c #573E28",
"n.	c #563E24",
"o.	c #B2865F",
"p.	c #906D47",
"q.	c #593F24",
"r.	c #564126",
"s.	c #926F45",
"t.	c #593F28",
"u.	c #785633",
"v.	c #785832",
"w.	c #B1865B",
"x.	c #B98556",
"y.	c #564028",
"z.	c #906D45",
"A.	c #78563B",
"B.	c #5B3F29",
"C.	c #5B4025",
"D.	c #795734",
"E.	c #593F26",
"F.	c #5A4029",
"G.	c #775339",
"H.	c #75563A",
"I.	c #6A6A62",
"J.	c #6C6960",
"K.	c #765832",
"L.	c #765335",
"M.	c #B28359",
"N.	c #B5815A",
"O.	c #AF825B",
"P.	c #B18258",
"Q.	c #B6825A",
"R.	c #B18256",
"S.	c #916B47",
"T.	c #6A6D64",
"U.	c #696C65",
"V.	c #765333",
"W.	c #926C48",
"X.	c #8F6B47",
"Y.	c #76573A",
"Z.	c #785336",
"`.	c #775532",
" +	c #AF865A",
".+	c #B0875B",
"++	c #B6855A",
"@+	c #916A49",
"#+	c #8F6E45",
"$+	c #5D3D26",
"%+	c #594223",
"&+	c #7A5336",
"*+	c #86867C",
"=+	c #898385",
"-+	c #926F47",
";+	c #765532",
">+	c #775933",
",+	c #B1845B",
"'+	c #B4875E",
")+	c #593D28",
"!+	c #775539",
"~+	c #926E4A",
"{+	c #8E7147",
"]+	c #5A4027",
"^+	c #5A4228",
"/+	c #765834",
"(+	c #84847C",
"_+	c #83867D",
":+	c #906F46",
"<+	c #745833",
"[+	c #936B48",
"}+	c #8E6B45",
"|+	c #593E29",
"1+	c #755731",
"2+	c #553B24",
"3+	c #936C45",
"4+	c #956944",
"5+	c #916945",
"6+	c #5D3F27",
"7+	c #554025",
"8+	c #B28858",
"9+	c #7A5636",
"0+	c #8B6D49",
"a+	c #583E25",
"b+	c #906D43",
"c+	c #75552E",
"d+	c #B5855F",
"e+	c #73583B",
"f+	c #725835",
"g+	c #AE8359",
"h+	c #AF8258",
"i+	c #906A45",
"j+	c #AC8157",
"k+	c #5C3D29",
"l+	c #AB8560",
"m+	c #533F27",
"n+	c #956F48",
"o+	c #956F4B",
"p+	c #7F8480",
"q+	c #83857A",
"r+	c #735A32",
"s+	c #7A5737",
"t+	c #B4885B",
"u+	c #B4855B",
"v+	c #B58459",
"w+	c #926D43",
"x+	c #533F26",
"y+	c #B58658",
"z+	c #93704A",
"A+	c #868487",
"B+	c #858681",
"C+	c #725739",
"D+	c #946D46",
"E+	c #946F45",
"F+	c #696B60",
"G+	c #676A63",
"H+	c #5A4025",
"I+	c #74563A",
"J+	c #795535",
"K+	c #765438",
"L+	c #8E6D44",
"M+	c #6B6C66",
"N+	c #8F6C42",
"O+	c #563C21",
"P+	c #563B28",
"Q+	c #795837",
"R+	c #795437",
"S+	c #795835",
"T+	c #B4845C",
"U+	c #78563A",
"V+	c #B3835D",
"W+	c #936E44",
"X+	c #715641",
"Y+	c #725841",
"Z+	c #785539",
"`+	c #795933",
" @	c #906C4A",
".@	c #966A45",
"+@	c #956B45",
"@@	c #745536",
"#@	c #B48456",
"$@	c #976B46",
"%@	c #735741",
"&@	c #70583E",
"*@	c #745737",
"=@	c #775436",
"-@	c #B38458",
";@	c #B38257",
">@	c #765337",
",@	c #755236",
"'@	c #735438",
")@	c #8D6945",
"!@	c #795A3D",
"~@	c #936C4B",
"{@	c #755836",
"]@	c #916E44",
"^@	c #A87E54",
"/@	c #AD8056",
"(@	c #976B48",
"_@	c #986D4A",
":@	c #8D6C43",
"<@	c #725334",
"[@	c #735638",
"}@	c #7D827B",
"|@	c #808275",
"1@	c #6C5631",
"2@	c #735231",
"3@	c #967049",
"4@	c #976D47",
"5@	c #8C6B42",
"6@	c #775937",
"7@	c #848276",
"8@	c #838077",
"9@	c #916643",
"0@	c #5F4129",
"a@	c #5D432A",
"b@	c #956D49",
"c@	c #76573B",
"d@	c #868485",
"e@	c #868885",
"f@	c #70592F",
"g@	c #745538",
"h@	c #878681",
"i@	c #858881",
"j@	c #8E6D4E",
"  . + @ @ # $ % % % & * = @ @ - % % % ; > , ' % ' ) & ! ~ % { ] ",
"^ / + ( _ _ % % % ' : < _ [ [ } % ' | 1 2 3 4 5 ' 6 ] 7 8 | 9 { ",
"% ' @ 0 a b % % $ | c d c e c f % g e h + # $ i j k l m n c f f ",
"o p m q r s t u v w x x x x > y o z f c A B % C D E F G H I s y ",
"J K % % ' 6 L M N ] O @ @ @ | % < P c > t % 4 | M Q R S T { % % ",
"] U V W X ' Y c Z ] `  .F @ ..X +.. @.d t % ' % M #.$.%.&.] | % ",
"*.=.-.;.* >.,.'.).!.F + ~.' * {.].( ^.( /.$ M M 1 % (._.:.<.[.% ",
"@ }.|.|.1.. 2./.c 3.@ + 4.| <   5.6.[ 7./.% 8.d $ '.Z * 9.[ | t ",
"O :.0.a.b.= ] . c.L @ + ~.% | d.@ } e.f.t ; K & ,.' ( + n g.h.% ",
"l 6.% i.} j.K Z c k.@ + | % | % [ l.m.n.t C o.^ 0.'.@ p.q.c ,.' ",
"] Z e r.+ @ m s.~.' F + a M c.@.c.t.u.v.% % c f | 5 '.% $ u.w.Z ",
"] x.y.y.m @ ( z.A.' @ m B.> x x a C.' % 4 D.E.F.| % $ $ % '.9 >.",
"^ < G.t 4.4 4.H.I.J.K.4 L.G.M.N.N.O.% /.P.Q.N.R.h.% z.S.4 %  .= ",
"] < % % % % % | T.U.V.$ % % { ] ^ w.% 4 >.] ] { $ ' W.X.Y.% @ @ ",
"Z.`.| v. +.+] ++@++ #++ $+L X Z.+ l.M %+0 ( &+$ | X *+=+-++ <.@ ",
"% ;+% >+,+* ] '++ F @ = )+c !+| ~+{+]+^+p.` % % % /+(+_+F @ ` ` ",
"@ O t % % % F :+| % O + )+@.c n.% ' @ + /.% 4 <+[++ [+}+|+f h.% ",
"0 @ % 1+| ; p.6.!+% :+z.y c 2+L % ;+@ + /.' h.'.3+4+3+5+6+L X % ",
"% ' <.0 a 7+| % % i.f @.c c | % % ' + + /.u.e Y 8+] ] ! 9+% F @ ",
"% ' @ 0+r., ,.| % '.8.a+f L % '.% 1+^.b+2.c+c b d+^ '+^ e+f+[ ( ",
"% ' ( + t 5 g+h+$ ' i+m E j+p.X.a k+>.! g+l+m+n.n+<.:.o+p+q+r+s+",
"; % ` z./.X o.t+| ' - @ u+v+w+- L x+< * k y+a+n.z+@ @ [ A+B+C+'.",
"[ O % ' % % D+E+!+;+@ = 4.D.@ + F+G+m z.H+k.c n.@ @ @ W.e+I+M M ",
"F 6.J+' % % _ 6.K+% z.0 4.4 @ L+M+|.F N+a c c n.p.z.z.0 4 4 c f ",
"O+2 P+f t % ^.6.!+% % Q+! K ' $ % X ' ' X '.6.#+R+u.0.S+! ^ T+T+",
"c c c.y t % ` 6.U+t | 2.V+^ 4 ) % % 4 4 Q+4 @ -+!+% % 4 K ] k ] ",
"J+) W+( 2.5 % % X+Y+Z+`+ @.@+@@ % @@2+8.8.c.L a+| ' u+#@$@].].].",
"$ ' @ + /.' t % %@&@,.4 + @ @ - % *@c c c c 8.e.=@S+& * } O @ @ ",
"p.0 4 v.% !+M.-@2.Z+m.t.V 2.y ]+;@h+>@,@>@'@)@)@| ' o !@~@@ @ @ ",
"@ @ ' % % '.^ k =@{@c > !+| M >   < % % % % [ ]@| '.% 4 + + - D+",
"@ O % v.^@/@(@_@i+:@<@[@}@|@1@2@3@4@}+5@4 % s+6@7@8@9@)@p Q+0@a@",
"@ b@% 4 ,+  + @ @ @ | c@d@e@f@'.+ @ @ + /.' ' g@h@i@j@@ [.% M c "};
