/* XPM */
static char * empty_space_xpm[] = {
"32 32 132 2",
"  	c #494546",
". 	c #514D4E",
"+ 	c #524E4F",
"@ 	c #4A4647",
"# 	c #464243",
"$ 	c #4E4A4B",
"% 	c #585455",
"& 	c #5D595A",
"* 	c #615D5E",
"= 	c #5F5B5C",
"- 	c #5B5758",
"; 	c #595556",
"> 	c #5A5657",
", 	c #504C4D",
"' 	c #545051",
") 	c #565253",
"! 	c #454142",
"~ 	c #423E3F",
"{ 	c #5C5859",
"] 	c #696566",
"^ 	c #4C4849",
"/ 	c #555152",
"( 	c #575354",
"_ 	c #605C5D",
": 	c #534F50",
"< 	c #484445",
"[ 	c #413D3E",
"} 	c #4F4B4C",
"| 	c #676364",
"1 	c #656162",
"2 	c #474344",
"3 	c #3E3A3B",
"4 	c #433F40",
"5 	c #4B4748",
"6 	c #4D494A",
"7 	c #5E5A5B",
"8 	c #050102",
"9 	c #817D7E",
"0 	c #7C7879",
"a 	c #878384",
"b 	c #827E7F",
"c 	c #726E6F",
"d 	c #353132",
"e 	c #363233",
"f 	c #2D292A",
"g 	c #2B2728",
"h 	c #716D6E",
"i 	c #938F90",
"j 	c #444041",
"k 	c #666263",
"l 	c #6B6768",
"m 	c #343031",
"n 	c #2A2627",
"o 	c #403C3D",
"p 	c #211D1E",
"q 	c #1E1A1B",
"r 	c #191516",
"s 	c #3C3839",
"t 	c #6A6667",
"u 	c #767273",
"v 	c #736F70",
"w 	c #747071",
"x 	c #706C6D",
"y 	c #6E6A6B",
"z 	c #686465",
"A 	c #646061",
"B 	c #090506",
"C 	c #777374",
"D 	c #6D696A",
"E 	c #757172",
"F 	c #625E5F",
"G 	c #858182",
"H 	c #8C8889",
"I 	c #6F6B6C",
"J 	c #ADA9AA",
"K 	c #979394",
"L 	c #635F60",
"M 	c #3F3B3C",
"N 	c #7F7B7C",
"O 	c #3B3738",
"P 	c #262223",
"Q 	c #272324",
"R 	c #7E7A7B",
"S 	c #7D797A",
"T 	c #8B8788",
"U 	c #7B7778",
"V 	c #383435",
"W 	c #312D2E",
"X 	c #332F30",
"Y 	c #302C2D",
"Z 	c #292526",
"` 	c #221E1F",
" .	c #1D191A",
"..	c #2E2A2B",
"+.	c #3A3637",
"@.	c #171314",
"#.	c #393536",
"$.	c #181415",
"%.	c #110D0E",
"&.	c #231F20",
"*.	c #6C6869",
"=.	c #252122",
"-.	c #120E0F",
";.	c #322E2F",
">.	c #3D393A",
",.	c #9F9B9C",
"'.	c #9B9798",
").	c #999596",
"!.	c #9E9A9B",
"~.	c #8A8687",
"{.	c #8D898A",
"].	c #9A9697",
"^.	c #2C2829",
"/.	c #787475",
"(.	c #797576",
"_.	c #7A7677",
":.	c #373334",
"<.	c #848081",
"[.	c #989495",
"}.	c #A09C9D",
"|.	c #837F80",
"1.	c #282425",
"2.	c #2F2B2C",
"3.	c #201C1D",
"4.	c #918D8E",
"5.	c #8F8B8C",
"6.	c #908C8D",
"7.	c #868283",
"8.	c #807C7D",
"9.	c #898586",
"0.	c #888485",
"a.	c #1F1B1C",
"  . + @ # $ % & * = - ; % > & = = - , ' , $ ) ! ! ~ & - { ; ] ; ",
"^ . . ^ @ , ' / % % ( ( ) ) ) ( _ _ : $ !   % < [ } | > { > 1 ' ",
"  2 ~ 3 4 5 $ 6 , + / ; > - > ; ) _ 7 - 5 # / < 8 # 9 0 a 9 b c ",
"# 3 d e [ } ) ( ; > > - > % ) ' . 6 6 _ > # [ f g h i ] _ ( _ _ ",
"  j 4 ^ > k l l ] k _ ; + 6 @ < 6 m n # o p q r s t u 5 ' 7 h v ",
"$ . { l w w x y z A 7 % / / ) ( _ - > - f B e k 9 b C / k t z + ",
"{ * D C E t F * - > ; ; { F | l w G H 0 [ g I J K w & ! + ( L : ",
"y x E u t > / ; ( ( ( % - = A | % & ( + M ~ y N | $ ; > 7 / F ) ",
"x y | & ' } } . % ' % % $ , % ) + ^ j O o 7 u u & % 2 { A z . : ",
"% ; % / : : ( - , 6 . ) / ( ( , } , } : * l ] L % * ) - 6 } $ z ",
"+ : : + . . : / ; ' + / ; ; : 5 = { $ , A = } + | L ^ ' / = } ' ",
") ) ) ' + } $ 6 { ; , $ / ) . .   ) / F v . P P < & - F ) % ^ ( ",
"+ + : ' ' ' : . } / 6 5 / / , % # ) ( _ t < Q m @ = ; { : { . ; ",
": + . + ' ' : . + 7 ) + 7 % ^ ) & = ' $ , !   | R S - . } L ' } ",
"( ' + : / / : . { L .   & - } { ' % - % } # 5 % h T U L 4 5 ^ { ",
": . , : % { & { ' / V W . { > D = % ' < d X [ < $ l 1 = . & } $ ",
"% + , / ; - & _ ; @ Y O 7 % $ | } 6 # m p Z M 4 g `  .q .., A 7 ",
"< { L ; / ' +.@.` #.$ k w * + = V $.r %.&.6 ( z 1 k *.D *.u u k ",
"D _ ; & ; 4 =.-.  7 h v ] - ' / % Q ;.>.D ,.H '.).'.!.i N w z : ",
"X +.} { # n X : ~.b v { , ; - ^ ! n +.7 {.].u c k * = ( 6 . / 6 ",
"=.^.Z ` Y . *.E D t _ , . A _ ~ m [ j /.K (.1 ) _ / . } $ > 1 _ ",
"_.A 5   A S U ] o ; L ( ) - $ :.#.( < h <.; % $ { : + : $ } 6 [ ",
"I 9 [.}.T z + 6 M z I ; , # m f ^ A / D |.1 ; ( + $ ( 7 ; ; - ' ",
"^ F A : : * , ^.>.] *.' , M 1.1.+.<   > S h 6 6 ) . / / @ 5 / ( ",
"[ 2 o Y 2.s M e V % D ) , o 3.O ^ 6 F E *.& % / : : : : : : : : ",
":.e X e 4 5 3 Z $ % @ 3. .Q ^.7 !.4.4.5./.* % + : : : : : : : : ",
": > A t z F > / F & s r f 5 _ 6.'.7._.h 7 . } ^ : : : : : : : : ",
"8.|.9.0._.l D (./.u % @ *.S u 7.u * ( / } . % ( : : : : : : : : ",
"8.x k z | _ 7 L 1 y ) / C R E U v * ; % : ) ; ' : : : : : : : : ",
"{ ) ' ( ) : ) 7 > 1 ~ +.( F y 8.t & ; % + : ' 5 : : : : : : : : ",
"^ / & & ) / _ *.l *.#.d > * 1 1 1 - > ; ' ; { / : : : : : : : : ",
") + 6 $ ) = * & ^ @ a.s |.4.S _ ] = - / ^ , / $ : : : : : : : : "};
