/* XPM */
static char * wall_xpm[] = {
"32 32 395 2",
"  	c #58842B",
". 	c #487323",
"+ 	c #538629",
"@ 	c #53862A",
"# 	c #537A27",
"$ 	c #517B29",
"% 	c #4F7625",
"& 	c #4E7524",
"* 	c #4C7527",
"= 	c #4B7426",
"- 	c #598B2A",
"; 	c #3C641E",
"> 	c #3D651F",
", 	c #467225",
"' 	c #467227",
") 	c #53882C",
"! 	c #53852C",
"~ 	c #4D7627",
"{ 	c #578B29",
"] 	c #3F691F",
"^ 	c #5C902E",
"/ 	c #496D23",
"( 	c #486C22",
"_ 	c #528529",
": 	c #538429",
"< 	c #517B27",
"[ 	c #598D2B",
"} 	c #52892B",
"| 	c #52842B",
"1 	c #5A902E",
"2 	c #4B6D23",
"3 	c #487726",
"4 	c #477625",
"5 	c #51812B",
"6 	c #5D902B",
"7 	c #3E611F",
"8 	c #4C7124",
"9 	c #4E7E28",
"0 	c #527928",
"a 	c #517827",
"b 	c #4E7826",
"c 	c #55882C",
"d 	c #598A2F",
"e 	c #588B2E",
"f 	c #4A7325",
"g 	c #5F9130",
"h 	c #60922F",
"i 	c #3E6820",
"j 	c #3E6721",
"k 	c #4E7526",
"l 	c #548228",
"m 	c #5E912C",
"n 	c #3E6121",
"o 	c #558329",
"p 	c #4D7F28",
"q 	c #4E7E2A",
"r 	c #588B2F",
"s 	c #5F912E",
"t 	c #436B24",
"u 	c #50872C",
"v 	c #528B2A",
"w 	c #436320",
"x 	c #416420",
"y 	c #40651F",
"z 	c #598A2E",
"A 	c #58892D",
"B 	c #496F22",
"C 	c #5B8A2A",
"D 	c #5C8B2B",
"E 	c #54812C",
"F 	c #51832C",
"G 	c #598F2D",
"H 	c #5E8E2B",
"I 	c #3A631F",
"J 	c #3B621F",
"K 	c #507D28",
"L 	c #528028",
"M 	c #487324",
"N 	c #4F872C",
"O 	c #538B2A",
"P 	c #538A2C",
"Q 	c #446320",
"R 	c #3F641E",
"S 	c #598B2C",
"T 	c #486E21",
"U 	c #5B8B28",
"V 	c #527926",
"W 	c #5B8F2D",
"X 	c #5F8F2C",
"Y 	c #517E29",
"Z 	c #527E27",
"` 	c #52872B",
" .	c #497828",
"..	c #53832D",
"+.	c #53842B",
"@.	c #4C7322",
"#.	c #487425",
"$.	c #40601F",
"%.	c #416120",
"&.	c #508229",
"*.	c #4E832B",
"=.	c #42681F",
"-.	c #41671E",
";.	c #3C6320",
">.	c #4C7225",
",.	c #4C7227",
"'.	c #548C29",
").	c #538B28",
"!.	c #538C2B",
"~.	c #507D2A",
"{.	c #446822",
"].	c #456621",
"^.	c #54852C",
"/.	c #4D7423",
"(.	c #4F7C29",
"_.	c #5F8E2E",
":.	c #466A22",
"<.	c #457124",
"[.	c #457122",
"}.	c #4A6E24",
"|.	c #598C2D",
"1.	c #588C2A",
"2.	c #5B8A2C",
"3.	c #558829",
"4.	c #54872A",
"5.	c #518A29",
"6.	c #487524",
"7.	c #55812A",
"8.	c #609231",
"9.	c #5E9230",
"0.	c #477328",
"a.	c #578D2B",
"b.	c #466F23",
"c.	c #467024",
"d.	c #4C7928",
"e.	c #4B7827",
"f.	c #447023",
"g.	c #5A8929",
"h.	c #55882B",
"i.	c #5F9331",
"j.	c #568E2B",
"k.	c #477024",
"l.	c #5E9132",
"m.	c #4A7928",
"n.	c #517D24",
"o.	c #4B7223",
"p.	c #406520",
"q.	c #406522",
"r.	c #457221",
"s.	c #477222",
"t.	c #558B2B",
"u.	c #548A2C",
"v.	c #487727",
"w.	c #3F6220",
"x.	c #4E8528",
"y.	c #4E852A",
"z.	c #5A872C",
"A.	c #5A872A",
"B.	c #43671F",
"C.	c #568C2A",
"D.	c #497526",
"E.	c #518428",
"F.	c #4C7D24",
"G.	c #4C7727",
"H.	c #4B7728",
"I.	c #507C23",
"J.	c #4B7124",
"K.	c #4A7122",
"L.	c #3F641F",
"M.	c #3E6320",
"N.	c #59862B",
"O.	c #446820",
"P.	c #52882A",
"Q.	c #4A7627",
"R.	c #4C7C26",
"S.	c #4C7728",
"T.	c #57942D",
"U.	c #58952E",
"V.	c #477626",
"W.	c #497827",
"X.	c #416A1E",
"Y.	c #416920",
"Z.	c #507728",
"`.	c #538127",
" +	c #528026",
".+	c #5A8C29",
"++	c #5B8D2A",
"@+	c #538627",
"#+	c #3F6822",
"$+	c #406923",
"%+	c #4E8327",
"&+	c #426C20",
"*+	c #436C20",
"=+	c #436B22",
"-+	c #467527",
";+	c #467525",
">+	c #426620",
",+	c #436721",
"'+	c #426721",
")+	c #436822",
"!+	c #406A20",
"~+	c #548027",
"{+	c #5A8E2A",
"]+	c #406925",
"^+	c #41651F",
"/+	c #416922",
"(+	c #497625",
"_+	c #4D812C",
":+	c #487122",
"<+	c #4F7A2A",
"[+	c #5C8E2B",
"}+	c #61942F",
"|+	c #5A892D",
"1+	c #446E24",
"2+	c #538226",
"3+	c #477125",
"4+	c #487125",
"5+	c #568229",
"6+	c #4A7A26",
"7+	c #558C2E",
"8+	c #568D2F",
"9+	c #446C23",
"0+	c #446D21",
"a+	c #466C23",
"b+	c #466C21",
"c+	c #4D822A",
"d+	c #4F7A2B",
"e+	c #426521",
"f+	c #538224",
"g+	c #477127",
"h+	c #558128",
"i+	c #476B23",
"j+	c #3D6421",
"k+	c #4D7D29",
"l+	c #4D7C2B",
"m+	c #578E29",
"n+	c #57832A",
"o+	c #5E922D",
"p+	c #5D912C",
"q+	c #4D762A",
"r+	c #4D7628",
"s+	c #457426",
"t+	c #497B26",
"u+	c #3F6721",
"v+	c #5E922E",
"w+	c #40631F",
"x+	c #5B882B",
"y+	c #537F28",
"z+	c #578D2D",
"A+	c #457529",
"B+	c #487A25",
"C+	c #547E28",
"D+	c #4C7026",
"E+	c #4B7126",
"F+	c #598629",
"G+	c #3E631E",
"H+	c #588F2A",
"I+	c #508729",
"J+	c #55862A",
"K+	c #56872C",
"L+	c #54892D",
"M+	c #548B2D",
"N+	c #4C7823",
"O+	c #4B7823",
"P+	c #426A21",
"Q+	c #426A23",
"R+	c #3F671E",
"S+	c #497226",
"T+	c #4C7526",
"U+	c #598627",
"V+	c #5B8F2A",
"W+	c #56872B",
"X+	c #558B2D",
"Y+	c #4C7821",
"Z+	c #416620",
"`+	c #3F6720",
" @	c #548728",
".@	c #487027",
"+@	c #578928",
"@@	c #537D27",
"#@	c #4D7A29",
"$@	c #3F6921",
"%@	c #58852A",
"&@	c #4E7F26",
"*@	c #4F8027",
"=@	c #5E8B30",
"-@	c #5E8B2E",
";@	c #5A8E2C",
">@	c #5A8C2B",
",@	c #528828",
"'@	c #406321",
")@	c #4B7B25",
"!@	c #537D29",
"~@	c #53892B",
"{@	c #58862C",
"]@	c #5F8C31",
"^@	c #5B8D2C",
"/@	c #3F6421",
"(@	c #486E25",
"_@	c #416D20",
":@	c #3F6A22",
"<@	c #508128",
"[@	c #508126",
"}@	c #3F621E",
"|@	c #5A892B",
"1@	c #4C7926",
"2@	c #4A7929",
"3@	c #3F631D",
"4@	c #4B7B27",
"5@	c #4C7C28",
"6@	c #507A24",
"7@	c #4F7627",
"8@	c #416D1E",
"9@	c #486E23",
"0@	c #4C7829",
"a@	c #40641E",
"b@	c #4F7F29",
"c@	c #4F7528",
"d@	c #4A7726",
"e@	c #4E7B28",
"f@	c #558227",
"g@	c #52822C",
"h@	c #417020",
"i@	c #406822",
"j@	c #55872E",
"k@	c #517F27",
"l@	c #436920",
"m@	c #3D601C",
"n@	c #3E611D",
"o@	c #4C8328",
"p@	c #406821",
"q@	c #406F1F",
"r@	c #497223",
"s@	c #55832B",
"t@	c #56842C",
"u@	c #558426",
"v@	c #568527",
"w@	c #538C2D",
"x@	c #4F7C27",
"y@	c #446A21",
"z@	c #5B862D",
"A@	c #59842B",
"B@	c #4E7B26",
"C@	c #4D7A25",
"D@	c #4A7724",
"E@	c #538A2D",
"F@	c #4F7927",
"G@	c #4F7829",
"H@	c #486C24",
"I@	c #446923",
"J@	c #5A852C",
"K@	c #4F7A28",
"L@	c #5F8F2B",
"M@	c #456E22",
"N@	c #476D22",
"O@	c #598F31",
"P@	c #5A912C",
"Q@	c #5C902C",
"R@	c #487226",
"S@	c #426221",
"T@	c #537F2A",
"U@	c #527D2B",
"V@	c #528B2D",
"W@	c #568E2D",
"X@	c #578F2E",
"Y@	c #45661F",
"Z@	c #5B922D",
"`@	c #588B2C",
" #	c #558E2D",
".#	c #5D912F",
"+#	c #4E7824",
"@#	c #4A7525",
"##	c #476823",
"$#	c #486721",
"%#	c #578D2F",
"&#	c #4B7C2A",
"*#	c #4B7C2B",
"=#	c #4D7826",
"-#	c #4E7927",
";#	c #58902D",
">#	c #3B631D",
",#	c #56902A",
"'#	c #578F2A",
")#	c #497B24",
"!#	c #4C7924",
"~#	c #4A7C25",
"{#	c #4B7523",
"]#	c #4C7624",
"^#	c #487123",
"/#	c #5D912D",
"(#	c #578E30",
"_#	c #57912D",
":#	c #4D7425",
"<#	c #58902B",
"[#	c #497923",
"    . . + @ # $ % & * = - - ; > , ' ) ) ! ! ~ ~ { { ] ] ^ ^ / ( ",
"    . . _ : < $ % % * * - [ > > , ' } ) ! | ~ ~ { { ] ] 1 ^ 2 / ",
"3 4 5 5 6 6 7 7 8 8 : : 9 9 0 a b b c ) d e f f g h i j k k l l ",
"3 3 5 5 m 6 7 n 8 8 o : p q 0 0 b b ) ) d r f f s s j j k k : l ",
"f f t t u u v v w x y y z A B B C D E E F F 0 0 G G H H I J K L ",
"M M t t u N O P Q w y R S z T B C U E E F F 0 V W G H X J J Y Z ",
"` )  . .. . ..+.@.@.#.#.$.%.&.*.=.-.;.;.>.,.'.'.).!.~.~.X X {.].",
") `  . .M M ^.+./.@.#.#.%.%.&.&.=.=.;.;.>.>.'.'.O O (.~._.X ].].",
":.:.<.[.}.}.|.1.C 2.3.4.5.5.6.6.^ ^ 7.7.8.9.0.' a.a.b.c.9.9.d.e.",
":.:.f.<.}./ |.[ g.C h.h.5.v 6.6.^ ^ 7.7.i.9.<.' a.j.b.k.l.l.m.e.",
"n.n.o.o.p.q.r.s.t.u.v.3 w.w.x.y.z.A.B.B.` ` C.C.D.D.E.E.F.F.G.H.",
"I.n.J.K.L.p.[.r.t.t.v.v.M.7 y.y.z.N.B.O.P.` C.C.Q.D.E.E.R.F.S.G.",
"T.U.V.V.e.W.X.Y.Z.Z.`. +.+++@++ , ' #+$+%+%+&+*+=+=+-+;+>+,+'+)+",
"T.T.V.v.e.W.Y.!+Z.Z.`.~+{+{++ + ' ' #+]+%+%+*+*+=+=+-+-+^+>+,+/+",
"(+D._+_+:+:+<+<+x w [+[+}+}+|+z.1+1+2+2+3+4+5+5+m.6+7+8+9+0+a+b+",
"(+4 c+_+:+:+<+d+e+x [+6 }+}+z.z.1+9+f+2+4+g+h+5+W.6+7+7+9+9+i+9+",
"j+;.k+l+8+8+P.P.m+a.n+n+o+p+q+r+-+s+t+t+u+j 9.v+P.P.w+w+x+x+y+y+",
";.;.k+k+8+8+P.P.m+z+n+n+p+p+r+r+A+s+t+B+u+j 9.9.} P.w+x x+x+Z C+",
"D+E+F+F+G+G+H+H+I+I+[+[+J+K+L+M+N+O+P+Q+_+*.w >+R+R+3.@+4+S+T+T+",
"D+D+F+U+G+G+m+m+I+I+++V+J+W+L+X+N+Y+Q+/+_+c+x Z+`+R+ @ @4+.@T+T+",
"+@+@@@@@#@#@h.h.$@$@N.%@&@*@=@-@;@>@,@,@1+1+|+|+| +.M.'@R.)@/ / ",
"+@+@!@@@#@#@~@h.$@$@{@%@&@&@=@]@.+^@,@,@1+1+g.|++.+./@/@)@R./ (@",
"_@_@:@:@^@^@<@[@w+}@}./ |@2.d.1@d.2@3@}@4@5@-.-.u u 9 9 6@6@7@% ",
"8@8@:@:@>@^@[@[@w+w+9@/ |@|@1@d.0@m.}@a@5@5@-.-.u u b@b@6@6@7@c@",
"d@d@S+S+/+)+x.y.e@5@f@f@g@g@j+> h@h@:+:+i@i@j@j@k@k@l@l@m@n@%+o@",
"d@d@4+S+p@/+x.y.5@5@f@h+g@..> > q@h@:+r@i@u+c c k@k@O.)+n@7 o@o@",
"S S s@t@M.L.! ! u@v@w@!.( ( ~@~@R.x@y@y@z@A@B@C@D@D@E@E@)+p@F@G@",
"S S t@s@G+G+! ! v@v@w@w@H@/ u.) x@x@y@I@A@J@4@C@D@D@E@E@#+i@G@K@",
"/@'@L@L@I@I@M@N@B.B.4@)@O@O@P@Q@l h+R@M S@S@T@U@h@h@- S E@V@W@X@",
"w.w.L@L@y@I@N@9@,+Y@6+4@O@O@Z@P@h+h+M M S@w T@T@h@h@`@S E@E@ #X@",
".#.#+#+#(+@###$#1 1 %#8+&#*#=#-#;#;#>#>#& & ,#'#)#!#)#~#{#]#^#S+",
"/#.#b b 6.6.####1 G %#(#&#&#-#-#;#_#>#>#k :#'#<#[#)#~#~#]#{#R@S+"};
