/* XPM */
static char * exit_xpm[] = {
"32 32 549 2",
"  	c #F8F8F8",
". 	c #F9F9F9",
"+ 	c #F7F9F8",
"@ 	c #F8F8F6",
"# 	c #F9F7F8",
"$ 	c #F8F8FA",
"% 	c #F7F7F7",
"& 	c #F6F4F7",
"* 	c #F9F9F7",
"= 	c #F9F9FB",
"- 	c #A793C8",
"; 	c #7E58BD",
"> 	c #8C5CC9",
", 	c #8E60CC",
"' 	c #9566D0",
") 	c #9965D1",
"! 	c #9869D3",
"~ 	c #9465CF",
"{ 	c #8B60C9",
"] 	c #835CC6",
"^ 	c #805BC4",
"/ 	c #9164CD",
"( 	c #845BC5",
"_ 	c #805AC1",
": 	c #7A57BB",
"< 	c #8E5FC7",
"[ 	c #9C67D3",
"} 	c #976AD3",
"| 	c #7F58C2",
"1 	c #7E59C0",
"2 	c #7A5ABD",
"3 	c #7858B9",
"4 	c #8A60C2",
"5 	c #A993C2",
"6 	c #F3F3F3",
"7 	c #7C5ABB",
"8 	c #3F02A8",
"9 	c #5C07C4",
"0 	c #5A0AC3",
"a 	c #6911C8",
"b 	c #6B13CA",
"c 	c #6D15CB",
"d 	c #6810C7",
"e 	c #5808BF",
"f 	c #4E04BD",
"g 	c #4A00B7",
"h 	c #610DC3",
"i 	c #6813C9",
"j 	c #4E04BB",
"k 	c #4903B4",
"l 	c #3B00A8",
"m 	c #5A0BBE",
"n 	c #6F17CE",
"o 	c #6C17CC",
"p 	c #4502B2",
"q 	c #4103B0",
"r 	c #3B00AA",
"s 	c #3C01AB",
"t 	c #3F04AC",
"u 	c #570ABC",
"v 	c #835AB8",
"w 	c #EFEFEF",
"x 	c #BF87E2",
"y 	c #A447E0",
"z 	c #7818D2",
"A 	c #7B1DD5",
"B 	c #6D12D1",
"C 	c #7F25D5",
"D 	c #8E31DA",
"E 	c #680FCD",
"F 	c #4806B2",
"G 	c #3702A8",
"H 	c #3D00A8",
"I 	c #4401B3",
"J 	c #4700B6",
"K 	c #4D03BC",
"L 	c #4601B4",
"M 	c #3900A7",
"N 	c #4803B8",
"O 	c #4802BC",
"P 	c #4A02BB",
"Q 	c #3A00A7",
"R 	c #4E02BA",
"S 	c #6106C7",
"T 	c #5F0BC5",
"U 	c #5505BE",
"V 	c #8457BC",
"W 	c #BA83E0",
"X 	c #9B41DF",
"Y 	c #7A1ED7",
"Z 	c #7C1ED6",
"` 	c #7920D0",
" .	c #8225D6",
"..	c #842BD5",
"+.	c #5D0DC8",
"@.	c #4703B2",
"#.	c #3E00AB",
"$.	c #4301AB",
"%.	c #4F05BA",
"&.	c #5705C1",
"*.	c #4F05BE",
"=.	c #5204BC",
"-.	c #5806C4",
";.	c #5709C1",
">.	c #3800A6",
",.	c #3F01AE",
"'.	c #4701B9",
").	c #5907C3",
"!.	c #5B0BC6",
"~.	c #5D0BC5",
"{.	c #885ABC",
"].	c #B27ADF",
"^.	c #9033DC",
"/.	c #761AD3",
"(.	c #8026D6",
"_.	c #A44BE3",
":.	c #852BD8",
"<.	c #7214CD",
"[.	c #3C02AE",
"}.	c #3A01A6",
"|.	c #4101AF",
"1.	c #5506C4",
"2.	c #6D14CE",
"3.	c #7519D2",
"4.	c #7418D1",
"5.	c #6B12CE",
"6.	c #4D01BB",
"7.	c #640EC7",
"8.	c #7319D1",
"9.	c #3E00AD",
"0.	c #3800A4",
"a.	c #5004BC",
"b.	c #5805C5",
"c.	c #7A1FD2",
"d.	c #9A68C9",
"e.	c #9768D0",
"f.	c #6717C8",
"g.	c #771BD6",
"h.	c #8127D6",
"i.	c #6815C7",
"j.	c #5608BE",
"k.	c #4B06B7",
"l.	c #5C0DC1",
"m.	c #6A11CB",
"n.	c #6610C9",
"o.	c #6E12CF",
"p.	c #620EC8",
"q.	c #4500B3",
"r.	c #5C0AC4",
"s.	c #7B21D8",
"t.	c #8023D6",
"u.	c #4B07B6",
"v.	c #4101AD",
"w.	c #4603B2",
"x.	c #6110C5",
"y.	c #8A5EC0",
"z.	c #845BC3",
"A.	c #5103BB",
"B.	c #7A1BD7",
"C.	c #7916D3",
"D.	c #6B0FCC",
"E.	c #5305BD",
"F.	c #4202B0",
"G.	c #3E02B0",
"H.	c #5809C4",
"I.	c #6E14CE",
"J.	c #8426DC",
"K.	c #6A11CF",
"L.	c #5E0AC4",
"M.	c #680FCB",
"N.	c #5707C2",
"O.	c #8227DA",
"P.	c #892BD7",
"Q.	c #5608C0",
"R.	c #3D00A6",
"S.	c #7B57B9",
"T.	c #3F01AC",
"U.	c #5105C1",
"V.	c #4A05B8",
"W.	c #3A00A4",
"X.	c #3E00A9",
"Y.	c #3D01AE",
"Z.	c #5F08C6",
"`.	c #6D15CC",
" +	c #600CC6",
".+	c #4404B0",
"++	c #4000AF",
"@+	c #4200AE",
"#+	c #3A00AA",
"$+	c #4B05B6",
"%+	c #7317D2",
"&+	c #6B10CD",
"*+	c #5A0AC5",
"=+	c #3E02AF",
"-+	c #3700A6",
";+	c #38029E",
">+	c #7053A7",
",+	c #FAFAFA",
"'+	c #7E5BC3",
")+	c #4502B4",
"!+	c #3901A4",
"~+	c #4805B4",
"{+	c #5009BD",
"]+	c #771DD4",
"^+	c #6B11CB",
"/+	c #4303AF",
"(+	c #3C00AD",
"_+	c #4D06BA",
":+	c #4103AC",
"<+	c #4002AF",
"[+	c #4401B0",
"}+	c #5707C0",
"|+	c #731BD1",
"1+	c #5C0EC2",
"2+	c #510DBC",
"3+	c #37019D",
"4+	c #7053A5",
"5+	c #F0F0F0",
"6+	c #885FC7",
"7+	c #5409BC",
"8+	c #4904B7",
"9+	c #4803B6",
"0+	c #5C0FC1",
"a+	c #6B18CC",
"b+	c #5B0BC4",
"c+	c #4704B4",
"d+	c #3801A5",
"e+	c #4603B3",
"f+	c #4D07B8",
"g+	c #4702B5",
"h+	c #580AC0",
"i+	c #7016D0",
"j+	c #6D13CB",
"k+	c #4807AD",
"l+	c #7A58AF",
"m+	c #9E64D2",
"n+	c #6F13CC",
"o+	c #560AC4",
"p+	c #5807C5",
"q+	c #5705C3",
"r+	c #8E35DF",
"s+	c #7117CF",
"t+	c #4907B1",
"u+	c #3801A7",
"v+	c #5004BE",
"w+	c #5D08C7",
"x+	c #620BCB",
"y+	c #4400AF",
"z+	c #3B00AC",
"A+	c #4804B3",
"B+	c #7920D4",
"C+	c #8426D6",
"D+	c #6A12C8",
"E+	c #8E60C3",
"F+	c #9F65D3",
"G+	c #6F15CD",
"H+	c #4504B6",
"I+	c #4A05BA",
"J+	c #5004C0",
"K+	c #6B15CE",
"L+	c #5206BE",
"M+	c #4305B2",
"N+	c #3C01A9",
"O+	c #4501B6",
"P+	c #4602B7",
"Q+	c #640EC9",
"R+	c #630DC8",
"S+	c #6009C7",
"T+	c #6713CB",
"U+	c #650FC8",
"V+	c #3F01AA",
"W+	c #4102A8",
"X+	c #5C0CC5",
"Y+	c #630FC7",
"Z+	c #895DBF",
"`+	c #6E15CF",
" @	c #3E02B2",
".@	c #4403B5",
"+@	c #4F03BD",
"@@	c #5708C3",
"#@	c #5C0AC6",
"$@	c #4702B7",
"%@	c #3D01AF",
"&@	c #4201B7",
"*@	c #6E13D0",
"=@	c #6A11CD",
"-@	c #600AC5",
";@	c #7216CF",
">@	c #7618D0",
",@	c #7018CF",
"'@	c #3B01AD",
")@	c #3A01A8",
"!@	c #3800A1",
"~@	c #5305BB",
"{@	c #5605C4",
"]@	c #5F0BC3",
"^@	c #885CBE",
"/@	c #A068D3",
"(@	c #7318CD",
"_@	c #4C07BC",
":@	c #5003C1",
"<@	c #5B08C8",
"[@	c #620DCA",
"}@	c #4E03BF",
"|@	c #4100B2",
"1@	c #4300B2",
"2@	c #3B00A6",
"3@	c #3700A3",
"4@	c #721AD1",
"5@	c #983CDF",
"6@	c #983BE1",
"7@	c #6C13C7",
"8@	c #600BC8",
"9@	c #4201B5",
"0@	c #4200B1",
"a@	c #5706C4",
"b@	c #5E0CCA",
"c@	c #781AD0",
"d@	c #9965C9",
"e@	c #9667D1",
"f@	c #6C14CA",
"g@	c #4D03BA",
"h@	c #4A04BC",
"i@	c #4D02BE",
"j@	c #600EC8",
"k@	c #6D17D2",
"l@	c #5B0DC5",
"m@	c #4803B4",
"n@	c #3F00AF",
"o@	c #4000B1",
"p@	c #6716CA",
"q@	c #8B30D6",
"r@	c #8A2ED7",
"s@	c #7116CB",
"t@	c #6711CA",
"u@	c #4903BB",
"v@	c #4703B8",
"w@	c #5605C3",
"x@	c #5B0ACB",
"y@	c #6F17CB",
"z@	c #9163C5",
"A@	c #F8FAF9",
"B@	c #8C5ECA",
"C@	c #6D1DCE",
"D@	c #872EDE",
"E@	c #8022D8",
"F@	c #530AB9",
"G@	c #4802BA",
"H@	c #4C02BB",
"I@	c #5507BF",
"J@	c #660DC9",
"K@	c #7C21D8",
"L@	c #8225D8",
"M@	c #5206C0",
"N@	c #5504C2",
"O@	c #5207BC",
"P@	c #8058B9",
"Q@	c #FAF8F9",
"R@	c #3E00AE",
"S@	c #3B01A1",
"T@	c #540BBA",
"U@	c #6313CC",
"V@	c #8123D9",
"W@	c #6D15C9",
"X@	c #560BBE",
"Y@	c #4500B5",
"Z@	c #5302C0",
"`@	c #5C0BC2",
" #	c #781FCF",
".#	c #8122D4",
"+#	c #7E21D4",
"@#	c #4704B6",
"##	c #3D00A5",
"$#	c #4B03BC",
"%#	c #7956B4",
"&#	c #8E63CE",
"*#	c #5E10C6",
"=#	c #6517CB",
"-#	c #5C11C4",
";#	c #4002AB",
">#	c #5B07BF",
",#	c #852EDD",
"'#	c #882EDE",
")#	c #7824D4",
"!#	c #6010C7",
"~#	c #5D08C5",
"{#	c #6210CE",
"]#	c #7A20D7",
"^#	c #8326D6",
"/#	c #5E0BBB",
"(#	c #5106B8",
"_#	c #4404B2",
":#	c #6E1ECF",
"<#	c #7722D5",
"[#	c #5F0FC6",
"}#	c #9565D2",
"|#	c #680FC9",
"1#	c #7416CE",
"2#	c #6714C8",
"3#	c #4201B3",
"4#	c #3603A8",
"5#	c #4E03C0",
"6#	c #802CDA",
"7#	c #8F31DD",
"8#	c #8528DB",
"9#	c #5F0AC9",
"0#	c #6910CC",
"a#	c #8324D6",
"b#	c #5407B9",
"c#	c #7920D2",
"d#	c #8C60C2",
"e#	c #885DC8",
"f#	c #5506C1",
"g#	c #8F2FD9",
"h#	c #892BDB",
"i#	c #7D1FD7",
"j#	c #4A03B9",
"k#	c #6814CA",
"l#	c #9735E0",
"m#	c #7E20D6",
"n#	c #791FD6",
"o#	c #8329D9",
"p#	c #5B10C2",
"q#	c #3D00AD",
"r#	c #751BD5",
"s#	c #8325DB",
"t#	c #8728DA",
"u#	c #4902B6",
"v#	c #7955B5",
"w#	c #701DCF",
"x#	c #761BCE",
"y#	c #6E16CA",
"z#	c #4102B1",
"A#	c #4603B5",
"B#	c #7420D0",
"C#	c #6C13CF",
"D#	c #6913CE",
"E#	c #6915CB",
"F#	c #671ACA",
"G#	c #4E0AB9",
"H#	c #4202B1",
"I#	c #6712C8",
"J#	c #7018CE",
"K#	c #6E16CC",
"L#	c #7654B2",
"M#	c #7F5AC1",
"N#	c #5908C6",
"O#	c #8526D8",
"P#	c #8427DA",
"Q#	c #8425D7",
"R#	c #4B01B8",
"S#	c #6409C8",
"T#	c #5404BD",
"U#	c #4101B0",
"V#	c #5105BD",
"W#	c #4C00BA",
"X#	c #7553B1",
"Y#	c #815BC2",
"Z#	c #7E25D5",
"`#	c #9237DD",
" $	c #751DD1",
".$	c #4D09B4",
"+$	c #4000AC",
"@$	c #4F03BB",
"#$	c #5405C2",
"$$	c #4401B1",
"%$	c #3900A5",
"&$	c #7021D2",
"*$	c #7D27D4",
"=$	c #610DC5",
"-$	c #5006BD",
";$	c #4002AD",
">$	c #4202AE",
",$	c #7754B2",
"'$	c #EFEFED",
")$	c #F7F7F5",
"!$	c #4801B5",
"~$	c #4400B2",
"{$	c #5408C4",
"]$	c #7D25D3",
"^$	c #9A39E1",
"/$	c #5109B5",
"($	c #3F00AB",
"_$	c #4B00B7",
":$	c #4E01BF",
"<$	c #4501AE",
"[$	c #4300AF",
"}$	c #7D2AD4",
"|$	c #8A2ED9",
"1$	c #4601B6",
"2$	c #3B01AB",
"3$	c #35029F",
"4$	c #4305AE",
"5$	c #7A52B2",
"6$	c #755BB2",
"7$	c #35029B",
"8$	c #4F04B7",
"9$	c #5406BE",
"0$	c #5E0DC4",
"a$	c #690FC7",
"b$	c #731ACE",
"c$	c #620EC4",
"d$	c #5909C0",
"e$	c #761BD0",
"f$	c #6510C6",
"g$	c #600CC2",
"h$	c #4B02B4",
"i$	c #6714C6",
"j$	c #7218CF",
"k$	c #6F17CD",
"l$	c #3A04A4",
"m$	c #37019F",
"n$	c #4303B1",
"o$	c #3C02A6",
"p$	c #7155AA",
"q$	c #9C8FBA",
"r$	c #7055A4",
"s$	c #7C54B4",
"t$	c #7D58B8",
"u$	c #8359BD",
"v$	c #8E5EC2",
"w$	c #9866C9",
"x$	c #835BBC",
"y$	c #8157BD",
"z$	c #9161C5",
"A$	c #9865CA",
"B$	c #8D5DC0",
"C$	c #895BBD",
"D$	c #7D55B5",
"E$	c #8E60C2",
"F$	c #9764C9",
"G$	c #9562C7",
"H$	c #7354B2",
"I$	c #7154AE",
"J$	c #7153AB",
"K$	c #7755B3",
"L$	c #7455B3",
"M$	c #7256AD",
"N$	c #988CB0",
"O$	c #F2F2F2",
"P$	c #F7F7F9",
"Q$	c #F1F2ED",
"R$	c #EEEEEE",
"S$	c #F1EFF0",
"T$	c #EFEFF1",
"U$	c #F0F0F2",
"V$	c #F0EEEF",
"W$	c #EFF1F0",
"X$	c #EDF1F0",
"      .   +         @     .     .       #     @     @       .   ",
"$                     .               @ %     @           #   . ",
"    & % * . . . . . . . . . . . = . . . . . . * . . . . % %     ",
"      - ; > , ' ) ! ~ { ] ^ / ' ( _ : < [ } | 1 2 2 3 4 5 6   @ ",
"    . 7 8 9 0 a b c d e f g h i j k l m n o p q r s t u v w     ",
"    . x y z A B C D E F G H I J K L M N O P Q I R S T U V w   @ ",
"    . W X Y Z `  ...+.@.#.$.%.U &.*.#.=.-.;.>.,.'.).!.~.{.w %   ",
"+ @ . ].^./.(._.:.<.[.}.|.1.2.3.4.5.6.7.8.4.9.M 0.a.b.c.d.w     ",
"    . e.f.g.A h.i.j.,.k.l.8.m.n.o.p.q.r.s.t.;.u.r v.w.x.y.w     ",
"#   . z.A.B.C.D.E.F.G.H.I.J.K.L.M.r.q.N.O.P.M.Q.,.l R.E.S.w   . ",
"    . 7 T.U.V.W.X.Y.Z.`.I. +.+l ++@+l #+$+U.%+&+*+=+-+;+>+w     ",
"  . ,+'+w.)+I !+~+{+]+^+;./+s l (+G._+:+<+[+}+x.|+1+2+3+4+5+%   ",
"    . 6+7+8+9+q 0+a+Z b+c+d+,.G.<+e+N.f+<+Y.g+h+i+2.j+k+l+w $   ",
"#   . m+n+o+p+q+` r+s+t+u+0.L P 6.v+w+x+k y+z+A+).B+C+D+E+w     ",
"  + . F+G+H+I+J+p.K+L+M+N+<+O+P+Q+R+S+I.T+U+(+V+W+X+Y+h Z+w     ",
"%   . [ `+ @.@+@@@#@$@%@Y.[+L &@*@=@-@;@>@,@'@)@!@~@{@]@^@w #   ",
"    . /@(@_@J+:@<@[@}@O+|@1@2@3@Q+4@5@6@7@8@O+9@0@a@b@c@d@w   . ",
"%   . e@f@g@h@i@j@k@l@m@n@o@#.X.S+p@q@r@s@t@u@v@1@w@x@y@z@w   @ ",
"    A@B@Q.|@1@)+C@D@E@F@Y.'@O+G@H@I@=@J@K@L@H.M@g+J+N@O@P@w +   ",
"$   Q@( 8+R@s S@T@U@V@W@X@n@O+Y@Z@w@`@ #.#+#@#q ##9+$#m@%#w     ",
"#   Q@&#*#=#-#;#|.,.>#,#'#)#!#H.~#{#]#^#/#(#r |._#:#<#[#y.w     ",
"    . }#|#1#2#3#9.4#5#6#7#8#5.9#9#0#t.a#b#P+)@<+$#c#8#d d#w     ",
"    . e#f#g#h#i#l.I o@j#k#l#m#3./.n#o#p#n@q#H@]@r#s#t#u#v#5+    ",
"    A@] j w#x#t.y#p#z#A#X@B#n C#D#E#F#G#<+H#!.I#3.J#K#A+L#w   # ",
"    . M#H#u@N#O#P#Q#)+z+s R#9 S#@@T#U#)@_#8+4.3.r#V#W#;#X#w     ",
"  @ . Y#)+U#H+[@Z#`# $.$r +$@$#$g+$$%$n@&$*$*@=$-$;$l >$,$'$  )$",
"    . ^ !$~$)+{$]$^$C+/$z+($_$:$q.<$}.[$}$|$n+b+1$2$3$4$5$w     ",
".   ,+6$7$8$%.9$0$a$b$c$d$T#c e$f$g$h$i$j$k$T.l$m$>$n$o$p$w     ",
"      q$r$s$t$u$^@v$w$y.x$y$z$A$B$C$D$E$F$G$H$I$J$K$L$M$N$O$.   ",
"  @ P$O$Q$w w R$w w S$w T$U$w w w w V$5+w U$W$5+W$W$W$X$O$  #   ",
"        %               .           %       $           +     $ ",
".   $     +                           #                         "};
