/* XPM */
static char * character_xpm[] = {
"32 32 746 2",
"  	c #2C1F0E",
". 	c #2E1B0C",
"+ 	c #2E1D0D",
"@ 	c #301F0F",
"# 	c #2D1D0D",
"$ 	c #281B0A",
"% 	c #271A09",
"& 	c #271C0A",
"* 	c #291E0C",
"= 	c #241707",
"- 	c #25170A",
"; 	c #24180A",
"> 	c #25190D",
", 	c #241A0E",
"' 	c #251B11",
") 	c #2C1F0F",
"! 	c #2B1E0E",
"~ 	c #2A1D0D",
"{ 	c #291C0C",
"] 	c #2D200F",
"^ 	c #312010",
"/ 	c #322111",
"( 	c #2F1F0F",
"_ 	c #2A1D0C",
": 	c #291C0B",
"< 	c #281D0B",
"[ 	c #281809",
"} 	c #261909",
"| 	c #271A0A",
"1 	c #27190C",
"2 	c #271B0D",
"3 	c #281C10",
"4 	c #261C10",
"5 	c #2E2110",
"6 	c #2B1E0D",
"7 	c #302010",
"8 	c #2E1E0E",
"9 	c #2B1B0B",
"0 	c #251404",
"a 	c #251505",
"b 	c #261607",
"c 	c #251808",
"d 	c #2C1A06",
"e 	c #2B1A08",
"f 	c #2C1B09",
"g 	c #2C1B0B",
"h 	c #2C1C0D",
"i 	c #312111",
"j 	c #322212",
"k 	c #332313",
"l 	c #3D2813",
"m 	c #3B2915",
"n 	c #3C2A16",
"o 	c #3C2918",
"p 	c #3B2A18",
"q 	c #281B0B",
"r 	c #342313",
"s 	c #432B13",
"t 	c #432A14",
"u 	c #412B14",
"v 	c #402B16",
"w 	c #402B18",
"x 	c #3E2C18",
"y 	c #2A1F0D",
"z 	c #352414",
"A 	c #332212",
"B 	c #42280F",
"C 	c #422811",
"D 	c #412911",
"E 	c #3F2912",
"F 	c #3F2914",
"G 	c #3E2914",
"H 	c #2D2010",
"I 	c #2F2211",
"J 	c #302312",
"K 	c #322715",
"L 	c #312614",
"M 	c #312413",
"N 	c #332615",
"O 	c #382818",
"P 	c #3B2A1A",
"Q 	c #3A2919",
"R 	c #3A2718",
"S 	c #492F16",
"T 	c #483018",
"U 	c #472F17",
"V 	c #452F18",
"W 	c #302313",
"X 	c #2F2212",
"Y 	c #2E2111",
"Z 	c #2C1A0E",
"` 	c #2C1D0A",
" .	c #351A05",
"..	c #B68C76",
"+.	c #BE8870",
"@.	c #BB8368",
"#.	c #BB8869",
"$.	c #C18F74",
"%.	c #C08E75",
"&.	c #C18F76",
"*.	c #C39178",
"=.	c #C7957E",
"-.	c #C99780",
";.	c #CA9782",
">.	c #C99681",
",.	c #BB8970",
"'.	c #BE8C73",
").	c #BC8A71",
"!.	c #BE8F75",
"~.	c #BD8E74",
"{.	c #BA8B71",
"].	c #BF9076",
"^.	c #B17458",
"/.	c #B27259",
"(.	c #AE705B",
"_.	c #A0705C",
":.	c #452612",
"<.	c #372614",
"[.	c #332314",
"}.	c #352116",
"|.	c #2C2411",
"1.	c #30250F",
"2.	c #37230B",
"3.	c #AD8971",
"4.	c #B5856E",
"5.	c #B5866A",
"6.	c #BB9070",
"7.	c #BB8C72",
"8.	c #C2927B",
"9.	c #C5957E",
"0.	c #C69680",
"a.	c #B8866D",
"b.	c #BD8B72",
"c.	c #B8896F",
"d.	c #BC8D73",
"e.	c #C19278",
"f.	c #AD7859",
"g.	c #B27A5F",
"h.	c #B17B63",
"i.	c #9F755F",
"j.	c #402810",
"k.	c #2E220C",
"l.	c #28200B",
"m.	c #251E04",
"n.	c #342309",
"o.	c #AB8970",
"p.	c #BA8E75",
"q.	c #B68A6D",
"r.	c #AE8766",
"s.	c #C6967F",
"t.	c #C99983",
"u.	c #CA9A84",
"v.	c #C09177",
"w.	c #A27554",
"x.	c #AC7B5D",
"y.	c #AF7D64",
"z.	c #9C745B",
"A.	c #442C12",
"B.	c #2F2309",
"C.	c #322610",
"D.	c #3C2B19",
"E.	c #391F0E",
"F.	c #2F1D07",
"G.	c #301E06",
"H.	c #432912",
"I.	c #A8826B",
"J.	c #BC8C75",
"K.	c #BB8D73",
"L.	c #B2896B",
"M.	c #BB8B74",
"N.	c #BE8E77",
"O.	c #C1917B",
"P.	c #C4947E",
"Q.	c #C49480",
"R.	c #B78971",
"S.	c #B98B73",
"T.	c #B5876F",
"U.	c #B98972",
"V.	c #A77958",
"W.	c #AB785B",
"X.	c #A8755A",
"Y.	c #956950",
"Z.	c #4D2F13",
"`.	c #392409",
" +	c #382008",
".+	c #3B1F0A",
"++	c #A67C6C",
"@+	c #A4816E",
"#+	c #A58570",
"$+	c #9A745F",
"%+	c #BF8C79",
"&+	c #B37A67",
"*+	c #B47D68",
"=+	c #B08167",
"-+	c #AD7F67",
";+	c #AC7E66",
">+	c #AD7F68",
",+	c #B0826B",
"'+	c #B1826E",
")+	c #B0816D",
"!+	c #A0745B",
"~+	c #A3775E",
"{+	c #A1755C",
"]+	c #A77961",
"^+	c #B68870",
"/+	c #BA8A73",
"(+	c #BE8C75",
"_+	c #996647",
":+	c #9E654A",
"<+	c #A56951",
"[+	c #A8725A",
"}+	c #8F634A",
"|+	c #916C52",
"1+	c #986F59",
"2+	c #9D6E5A",
"3+	c #AD7A69",
"4+	c #AA7D6A",
"5+	c #AF8672",
"6+	c #A97A66",
"7+	c #BD8574",
"8+	c #B77A68",
"9+	c #BA816E",
"0+	c #B7856E",
"a+	c #AA7C64",
"b+	c #A97B63",
"c+	c #A97B64",
"d+	c #AB7C68",
"e+	c #AC7D69",
"f+	c #AB7C6A",
"g+	c #987057",
"h+	c #9B7159",
"i+	c #986E56",
"j+	c #A1745D",
"k+	c #B3856E",
"l+	c #BB8B75",
"m+	c #BA8772",
"n+	c #BC8974",
"o+	c #A06B4C",
"p+	c #9F6349",
"q+	c #A16148",
"r+	c #A3674F",
"s+	c #97654A",
"t+	c #986A50",
"u+	c #9C6850",
"v+	c #9B614B",
"w+	c #B4816E",
"x+	c #A57863",
"y+	c #A47B65",
"z+	c #A67964",
"A+	c #BB8772",
"B+	c #BD8471",
"C+	c #AB7E67",
"D+	c #AC7F68",
"E+	c #AC7F6A",
"F+	c #AE816C",
"G+	c #AF826D",
"H+	c #AF826F",
"I+	c #AE816E",
"J+	c #A0785F",
"K+	c #9F775E",
"L+	c #A3765F",
"M+	c #B58770",
"N+	c #BC8C76",
"O+	c #B98671",
"P+	c #B88570",
"Q+	c #976A49",
"R+	c #9B6647",
"S+	c #9F664B",
"T+	c #9F674C",
"U+	c #9B6A4C",
"V+	c #996C4D",
"W+	c #9F6C4F",
"X+	c #A3674D",
"Y+	c #AD7D67",
"Z+	c #A17960",
"`+	c #A78369",
" @	c #A88369",
".@	c #B5826D",
"+@	c #B88B74",
"@@	c #AC876D",
"#@	c #A87B64",
"$@	c #A77A63",
"%@	c #A97C67",
"&@	c #AB7E69",
"*@	c #AD806D",
"=@	c #AC7F6C",
"-@	c #9A755B",
";@	c #976F56",
">@	c #BD8D77",
",@	c #BB8873",
"'@	c #936F4B",
")@	c #9C6F4E",
"!@	c #A37051",
"~@	c #9D6C4C",
"{@	c #966B49",
"]@	c #8F6744",
"^@	c #966847",
"/@	c #9F684A",
"(@	c #AA8C68",
"_@	c #B48363",
":@	c #BD8469",
"<@	c #B38A78",
"[@	c #FFFAF1",
"}@	c #F7FDFD",
"|@	c #FCFAFF",
"1@	c #FFEEF7",
"2@	c #583496",
"3@	c #51447A",
"4@	c #483B97",
"5@	c #593D8A",
"6@	c #AE8360",
"7@	c #BF8253",
"8@	c #B2786D",
"9@	c #AA874F",
"0@	c #AA8862",
"a@	c #C18C7C",
"b@	c #C88C68",
"c@	c #AF8174",
"d@	c #60418D",
"e@	c #473598",
"f@	c #4E3586",
"g@	c #66399E",
"h@	c #FFF7FB",
"i@	c #FDFCF7",
"j@	c #F8FFF3",
"k@	c #FFFBEB",
"l@	c #A88076",
"m@	c #B47A6E",
"n@	c #AE7E6A",
"o@	c #A18466",
"p@	c #B38970",
"q@	c #B57F67",
"r@	c #B87E6A",
"s@	c #B08A7D",
"t@	c #FFFEF8",
"u@	c #F5FFFF",
"v@	c #F8FFFF",
"w@	c #F8F6FB",
"x@	c #513A8A",
"y@	c #4D4871",
"z@	c #52499C",
"A@	c #5A3E8B",
"B@	c #AE7F6F",
"C@	c #B5715C",
"D@	c #B97185",
"E@	c #B37E6E",
"F@	c #B58B73",
"G@	c #BD8378",
"H@	c #BC8161",
"I@	c #554174",
"J@	c #4D488A",
"K@	c #533E77",
"L@	c #FFFCFF",
"M@	c #F5FFFD",
"N@	c #FFFDF2",
"O@	c #A68077",
"P@	c #AE7466",
"Q@	c #AC7A61",
"R@	c #A68260",
"S@	c #BD8A79",
"T@	c #B87D6B",
"U@	c #B77C6C",
"V@	c #B28C7F",
"W@	c #FFF8F3",
"X@	c #F7FFFF",
"Y@	c #EDF1F0",
"Z@	c #553CA2",
"`@	c #453A7F",
" #	c #4E3F9E",
".#	c #583786",
"+#	c #B38178",
"@#	c #BC795F",
"##	c #C67C7D",
"$#	c #B57A5A",
"%#	c #B88A72",
"&#	c #BE8478",
"*#	c #C18972",
"=#	c #BA9092",
"-#	c #4C3677",
";#	c #463D98",
">#	c #484191",
",#	c #4E3B97",
"'#	c #F7F9FF",
")#	c #FFF9F1",
"!#	c #A98579",
"~#	c #AE7665",
"{#	c #B17B5F",
"]#	c #B08562",
"^#	c #B7836E",
"/#	c #B77D67",
"(#	c #BB836C",
"_#	c #BE9380",
":#	c #FFEFE4",
"<#	c #FFFCF5",
"[#	c #FFFDF6",
"}#	c #FFF8EF",
"|#	c #5F3A8A",
"1#	c #553A71",
"2#	c #5D3F87",
"3#	c #6C457C",
"4#	c #A57666",
"5#	c #B67B5B",
"6#	c #BB806E",
"7#	c #B18057",
"8#	c #B58871",
"9#	c #B98570",
"0#	c #AA7D82",
"a#	c #664677",
"b#	c #573F89",
"c#	c #573D87",
"d#	c #5C3C88",
"e#	c #FFFAFA",
"f#	c #FFFAED",
"g#	c #FFECDB",
"h#	c #B08A77",
"i#	c #AE7A64",
"j#	c #AB795E",
"k#	c #A67B59",
"l#	c #9A694B",
"m#	c #9B6644",
"n#	c #9A6440",
"o#	c #8F5C3F",
"p#	c #B58875",
"q#	c #A87E70",
"r#	c #A67B6B",
"s#	c #A67765",
"t#	c #AF8078",
"u#	c #B48A7C",
"v#	c #AA8187",
"w#	c #A1767D",
"x#	c #754B35",
"y#	c #6D402B",
"z#	c #643837",
"A#	c #69423B",
"B#	c #684239",
"C#	c #6C4229",
"D#	c #714425",
"E#	c #774B32",
"F#	c #AB826C",
"G#	c #B28878",
"H#	c #B68974",
"I#	c #B88B64",
"J#	c #9A6D50",
"K#	c #956C4E",
"L#	c #997253",
"M#	c #A47B5F",
"N#	c #76482E",
"O#	c #815238",
"P#	c #85573D",
"Q#	c #7F583B",
"R#	c #936140",
"S#	c #9A663F",
"T#	c #9E6B40",
"U#	c #9B6340",
"V#	c #B97D65",
"W#	c #B47563",
"X#	c #BA7963",
"Y#	c #BE7E62",
"Z#	c #B87F61",
"`#	c #C28B6D",
" $	c #B6816F",
".$	c #B48573",
"+$	c #674023",
"@$	c #654327",
"#$	c #5B3C28",
"$$	c #654838",
"%$	c #654038",
"&$	c #674522",
"*$	c #684124",
"=$	c #663821",
"-$	c #C6926B",
";$	c #C58A6A",
">$	c #C5856A",
",$	c #C88B55",
"'$	c #AD6E42",
")$	c #A4653A",
"!$	c #A0653D",
"~$	c #A46E48",
"{$	c #7E4D2C",
"]$	c #835639",
"^$	c #7F553C",
"/$	c #754D34",
"($	c #9F614A",
"_$	c #9D6544",
":$	c #9E6A43",
"<$	c #9B6543",
"[$	c #B67861",
"}$	c #B4735F",
"|$	c #B4765D",
"1$	c #B37B58",
"2$	c #BC8179",
"3$	c #BA7D7A",
"4$	c #B3776F",
"5$	c #6C422A",
"6$	c #6D4C2B",
"7$	c #674721",
"8$	c #674424",
"9$	c #673F37",
"0$	c #694721",
"a$	c #6C4734",
"b$	c #6E3E3C",
"c$	c #BB876F",
"d$	c #BB7F77",
"e$	c #C17F8B",
"f$	c #C18875",
"g$	c #A46B40",
"h$	c #A1633C",
"i$	c #A2643F",
"j$	c #A26A47",
"k$	c #825130",
"l$	c #835836",
"m$	c #835838",
"n$	c #7F5034",
"o$	c #A75F51",
"p$	c #9E6047",
"q$	c #996444",
"r$	c #9A6546",
"s$	c #B67C66",
"t$	c #B77C6A",
"u$	c #B28065",
"v$	c #A9825B",
"w$	c #B4866C",
"x$	c #B68173",
"y$	c #BE8476",
"z$	c #B47F6F",
"A$	c #6D3D39",
"B$	c #643933",
"C$	c #6D403A",
"D$	c #703B43",
"E$	c #744148",
"F$	c #643D1E",
"G$	c #623D2D",
"H$	c #704840",
"I$	c #B18755",
"J$	c #C19268",
"K$	c #BE9076",
"L$	c #AF8D4D",
"M$	c #9E6B4C",
"N$	c #A46D4F",
"O$	c #A26D4E",
"P$	c #7E522F",
"Q$	c #7C512E",
"R$	c #815331",
"S$	c #844F2F",
"T$	c #8D5E44",
"U$	c #8D5E42",
"V$	c #905F41",
"W$	c #915E3F",
"X$	c #955E3F",
"Y$	c #955D3C",
"Z$	c #975C3A",
"`$	c #421E08",
" %	c #3E2008",
".%	c #43250D",
"+%	c #441B05",
"@%	c #88503F",
"#%	c #8A4838",
"$%	c #8E4C3C",
"%%	c #894E3C",
"&%	c #8E4B3B",
"*%	c #8B4C3B",
"=%	c #844937",
"-%	c #865340",
";%	c #481B06",
">%	c #48240E",
",%	c #41210A",
"'%	c #3E220A",
")%	c #92603D",
"!%	c #8E5C39",
"~%	c #905F3E",
"{%	c #8E5D3D",
"]%	c #825337",
"^%	c #805137",
"/%	c #83533C",
"(%	c #7F5139",
"_%	c #8F6046",
":%	c #906145",
"<%	c #926045",
"[%	c #946144",
"}%	c #966142",
"|%	c #97613F",
"1%	c #975F3E",
"2%	c #975F3C",
"3%	c #4B2613",
"4%	c #44260E",
"5%	c #45270F",
"6%	c #46200B",
"7%	c #875240",
"8%	c #894A3B",
"9%	c #8A4D3B",
"0%	c #844B38",
"a%	c #894A39",
"b%	c #8C4F3D",
"c%	c #864D3C",
"d%	c #481D0A",
"e%	c #43230C",
"f%	c #432711",
"g%	c #905E3B",
"h%	c #8C5B3A",
"i%	c #8F5E3D",
"j%	c #8D5C3E",
"k%	c #815236",
"l%	c #7F5036",
"m%	c #81533B",
"n%	c #7E5038",
"o%	c #8B5D43",
"p%	c #8C5E44",
"q%	c #925D3D",
"r%	c #925C3A",
"s%	c #401B08",
"t%	c #391A05",
"u%	c #3C1E06",
"v%	c #441E09",
"w%	c #824F3C",
"x%	c #8A4F3F",
"y%	c #8D5242",
"z%	c #86523D",
"A%	c #864B39",
"B%	c #89503F",
"C%	c #834E3C",
"D%	c #7E4F3B",
"E%	c #471C09",
"F%	c #3C1C07",
"G%	c #3F200B",
"H%	c #91603F",
"I%	c #8E5D3C",
"J%	c #916040",
"K%	c #8E5F41",
"L%	c #845539",
"M%	c #815339",
"N%	c #84563C",
"O%	c #8E6046",
"P%	c #8F6147",
"Q%	c #906143",
"R%	c #916042",
"S%	c #905F3F",
"T%	c #47220F",
"U%	c #41220D",
"V%	c #442812",
"W%	c #4D2913",
"X%	c #7B4A39",
"Y%	c #834B3A",
"Z%	c #86513F",
"`%	c #80513D",
" &	c #7F4C39",
".&	c #7B4C38",
"+&	c #794C39",
"@&	c #512814",
"#&	c #4D2815",
"$&	c #482511",
"%&	c #492914",
"&&	c #8C5B3D",
"*&	c #8C5D41",
"=&	c #815437",
"-&	c #805238",
";&	c #83553B",
">&	c #7F5338",
",&	c #6F4328",
"'&	c #704429",
")&	c #704326",
"!&	c #6F4225",
"~&	c #6E4124",
"{&	c #421D0B",
"]&	c #3D1E0A",
"^&	c #3C200A",
"/&	c #391904",
"(&	c #4E210E",
"_&	c #4C1908",
":&	c #4B1C0A",
"<&	c #451C06",
"[&	c #4E210C",
"}&	c #4D220F",
"|&	c #4B200D",
"1&	c #4E2511",
"2&	c #3F1906",
"3&	c #421D0A",
"4&	c #3F1C09",
"5&	c #401D0A",
"6&	c #86573B",
"7&	c #835438",
"8&	c #84573A",
"9&	c #7B4D33",
"0&	c #784C31",
"a&	c #7C5035",
"b&	c #70462D",
"c&	c #6F462A",
"d&	c #6E4529",
"e&	c #6D4428",
"f&	c #492412",
"g&	c #442914",
"h&	c #42230E",
"i&	c #461D0B",
"j&	c #451604",
"k&	c #441906",
"l&	c #401C06",
"m&	c #46220C",
"n&	c #431F09",
"o&	c #492411",
"p&	c #4D2816",
"q&	c #492613",
"r&	c #84553B",
"s&	c #774B30",
"t&	c #7B4F34",
"u&	c #764D31",
"v&	c #6D432A",
"w&	c #6C442A",
"x&	c #6B4329",
"y&	c #6A4228",
"z&	c #694128",
"A&	c #3E1909",
"B&	c #3A1B07",
"C&	c #3B200B",
"D&	c #40210D",
"E&	c #401A07",
"F&	c #451A09",
"G&	c #42220B",
"H&	c #44240D",
"I&	c #40200B",
"J&	c #411E0A",
"K&	c #472411",
"L&	c #45220F",
"M&	c #431E0C",
"N&	c #441F0F",
"O&	c #86563F",
"P&	c #82543C",
"Q&	c #86583E",
"R&	c #7A4E33",
"S&	c #7B5236",
"T&	c #784F33",
"U&	c #6E462C",
"V&	c #6D452C",
"W&	c #6A452B",
"X&	c #69442A",
"Y&	c #482313",
"Z&	c #40210F",
"`&	c #3D240E",
" *	c #422611",
".*	c #441F0C",
"+*	c #3A1E06",
"@*	c #422610",
"#*	c #452010",
"$*	c #84563E",
"%*	c #85573F",
"&*	c #83573C",
"**	c #774E32",
"=*	c #7A5135",
"                . + @ # $ % & * = = - ; > , , ' ) ! ! ! ~ ~ { { ",
"] ] ]           @ ^ / ( _ : < * [ } | 1 2 3 4 4 ) ) ! ! ! ~ ~ ~ ",
"5 ] ] ]     6 6 @ @ 7 8 9 $ $ : 0 a a b = c ; ; ! ! ! ! ! ! ! ! ",
"] ]     6 6 _ _ 8 8 ( 8 # # 6 6 d d e f g 9 h h ~ ~ ~ ~ ~ ~ ~ ~ ",
"6 6 6 _ _ _ : : ] ] ( 7 i j k k l l l m n o p p { { { { { q q q ",
"_ _ _ _ _ _ _ 6 _ : _ 8 i k r r s t u u v v w x ~ ~ ~ { q q | | ",
"_ 6 6     ] ] ] y * _   j z z A B C D D E E F G H H ) ! ~ { q q ",
"6     ] 5 I J J K L M N O P Q R S S S T U V V V W X Y H ! ~ { q ",
"Z Y `  ...+.@.#.$.%.&.*.=.-.;.>.,.&.'.).!.~.{.].^./.(._.:.<.[.}.",
"} |.1.2.3.4.5.6.{.{.7.!.8.9.0.0.a.b.,.c.].!.d.e.f.g.h.i.j.k.] [.",
"I l.m.n.o.p.q.r.~.~.].8.s.t.u.u.~.v.d.7.v.].{.!.w.x.y.z.A.B.C.D.",
"E.F.G.H.I.J.K.L.7.{.M.N.O.P.Q.Q.R.S.T.T.N.N.U.M.V.W.X.Y.Z.`. +.+",
"++@+#+$+%+&+*+=+-+;+;+>+,+'+'+)+!+~+{+]+^+J./+(+_+:+<+[+}+|+1+2+",
"3+4+5+6+7+8+9+0+a+b+c+c+d+e+d+f+g+h+i+j+k+l+m+n+o+p+q+r+s+t+u+v+",
"w+x+y+z+A+B+m+C+D+C+C+E+F+G+H+I+J+K+h+L+M+N+O+P+Q+R+S+T+U+V+W+X+",
"Y+Z+`+ @k+.@+@@@#@$@$@%@&@*@*@=@-@z.;@j+M+>@,@m+'@)@!@~@{@]@^@/@",
"(@_@:@<@[@}@|@1@2@3@4@5@6@7@8@9@0@a@b@c@d@e@f@g@h@i@j@k@l@m@n@o@",
"p@q@r@s@t@u@v@w@x@y@z@A@B@C@D@E@F@G@H@<@I@J@y@K@L@v@M@N@O@P@Q@R@",
"S@T@U@V@W@X@u@Y@Z@`@ #.#+#@###$#%#&#*#=#-#;#>#,#'#X@X@)#!#~#{#]#",
"^#/#(#_#:#<#[#}#|#1#2#3#4#5#6#7#8#O+9#0#a#b#c#d#e#<#f#g#h#i#j#k#",
"l#m#n#o#p#q#r#s#t#u#v#w#x#y#z#A#B#C#D#E#F#G#H#I#J#K#L#M#N#O#P#Q#",
"R#S#T#U#V#W#X#Y#Z#`# $.$+$@$#$$$%$&$*$=$-$;$>$,$'$)$!$~${$]$^$/$",
"($_$:$<$[$}$|$1$2$3$4$E@5$6$7$8$9$0$a$b$c$d$e$f$g$h$i$j$k$l$m$n$",
"o$p$q$r$s$t$u$v$w$x$y$z$A$B$C$D$E$F$G$H$I$J$K$L$)@M$N$O$P$Q$R$S$",
"T$U$V$W$X$Y$Z$Z$`$ %.%+%@%#%$%%%&%*%=%-%;%>%,%'%)%!%~%{%]%^%/%(%",
"_%:%<%[%}%|%1%2%3%4%5%6%7%8%9%0%a%b%c%-%d%>%e%f%g%h%i%j%k%l%m%n%",
"o%p%U$V$W$q%q%r%s%t%u%v%w%x%y%z%A%B%C%D%E%`$F%G%H%I%J%K%L%M%N%m%",
"O%O%P%:%Q%R%S%W$T%U%V%W%X%Y%Z%`% &w%.&+&@&#&$&%&S%&&K%*&=&-&;&>&",
",&,&'&'&)&)&!&~&{&]&^&/&(&_&:&<&[&}&|&1&2&3&4&5&6&7&6&8&9&0&a&0&",
"b&b&b&b&c&c&d&e&f&:.g&h&i&j&k&l&m&m&n&T%o&p&q&q&r&O#N%;&0&s&t&u&",
"v&v&v&w&x&y&z&z&A&B&C&D&E&F&6%G&e%H&I&J&K&L&M&N&O&P&Q&P#t&R&S&T&",
"U&U&U&U&V&W&X&X&Y&Z&`& *s%i&.*+*'%@*h&I&q&L&#*Y&$*m%%*&*R&**=***"};
