/* XPM */
static char * wall_xpm[] = {
"32 32 4 1",
" 	c #FFBA59",
".	c #FFC365",
"+	c #EBAA41",
"@	c #FFB241",
" .+@@@ .+@@ ..+@@@ +@@   ..+@@@@",
" ..+@@ .+@@ ..+@@@ +@@   ..+@@ @",
" ..    .+@@ ..+@@@ +@@   .+@ @  ",
" ..+   .+@@ ..+@@@ +@@   .+@@  @",
" ..+@  .+@@ ..+@@@ +@@@   +@  @ ",
" ..+   .+   ..+@@@ +@@@  .+@@@ @",
" ..+@  .+@@ ..+@@  +@@    +@@ @@",
" ..+@ ..+@  ..+@@  +@@@  .+@@  @",
" ..+@ ..+    ++@@  +@@@  .+@@ @@",
" ..+@ ..+@  .+@@  .+@@@  .+@@@@@",
" ..+@ .++@  .+@@  +@@@@  .+@@   ",
" ..+@ .+@@  .+@   +@@@@  .+@@   ",
" ..+@ .+@@  .+@@   @@@   .+@@@ @",
" ..+@ .+@@@ .+@@@ +@@ @  .+@@@  ",
" ..+@ .+@@@ .+@@  +@@ @  .+@@ @ ",
" ..+@ .+@@@ .+@ @.+@  @  .+@@   ",
" ..+@ .+@@@ .+@@@..@     .+@@   ",
" ..+@ .+@@@ .+@@@..   @  .+@  @ ",
" ..+@ .+@@@ .+@@@.+@  @  .+@@   ",
" ..+@ .+@@@ .+@@@ +@@ @  .+@@ @ ",
" .. @ .+@@@ .+@@. +      .+@@   ",
" .  @ .+@@@ ++@@..+@  @  .+@@@@ ",
" ..+  .+@@@ +@@@. +@@   ..+@@   ",
" .. @ .+@@@ +@@@. +@ @  ..+@@ @ ",
" ..+  .+@@@ +@. . +@@@  ..+@@   ",
" ..+@ .+@@@ +@@. .+@@@  ..+@@@  ",
" ..+@ .+@@@ +@@ ..+@@@  ..+@@@  ",
" ..+@ .+@@  +@@@..+@@@  ..+@@@  ",
" ..+@ . @   +@@..+@@@@  .+@@@@  ",
" .+@@ .+ @  +@@@.+@     .+@@@@  ",
" .+@@ .+   .+@.@.+@@    +@@@@@  ",
" .+@@ .+   .+@@@..@@    +@@    ."};
